<?xml version="1.0" encoding="UTF-8"?>
<svg id="b" data-name="Layer 2" xmlns="http://www.w3.org/2000/svg" width="133.085mm" height="132.051mm" viewBox="0 0 377.25 374.317">
  <g id="c" data-name="Layer 1">
    <path d="M250.611,195.242l-5.644,5.644-55.923,55.935-55.935-55.935-5.644-5.644c-15.446-15.446-15.446-40.49,0-55.935,7.729-7.717,17.842-11.587,27.968-11.587s20.239,3.87,27.968,11.587l5.644,5.644,5.632-5.644c15.446-15.446,40.49-15.446,55.935,0,15.446,15.446,15.446,40.49,0,55.935Z" fill="#b49e77" stroke-width="0"/>
    <g>
      <path d="M157.733,323.121c-5.522,0-10-4.478-10-10v-17.778l-55.336-55.336c-37.822-37.825-37.822-99.368,0-137.191,3.906-3.904,10.236-3.904,14.143,0,3.905,3.905,3.905,10.237,0,14.143-30.025,30.024-30.025,78.88,0,108.906l58.265,58.265c1.875,1.876,2.929,4.419,2.929,7.071v21.921c0,5.522-4.478,10-10,10Z" fill="#61878b" stroke-width="0"/>
      <g>
        <polygon points="187.651 304.368 157.733 356.176 127.815 304.368 187.651 304.368" fill="#61878b" stroke-width="0"/>
        <path d="M157.733,357.176l-30.784-53.309h61.568l-30.784,53.309ZM128.682,304.867l29.052,50.309,29.052-50.309h-58.104Z" fill="#61878b" stroke-width="0"/>
      </g>
    </g>
    <g>
      <path d="M220.341,342.969c-5.522,0-10-4.478-10-10v-41.769c0-2.652,1.054-5.195,2.929-7.071l58.265-58.265c19.876-19.877,27.319-49.051,19.425-76.138-1.545-5.302,1.5-10.853,6.803-12.398,5.293-1.546,10.852,1.499,12.398,6.803,9.938,34.097.557,70.835-24.483,95.876l-55.336,55.336v37.626c0,5.522-4.478,10-10,10Z" fill="#61878b" stroke-width="0"/>
      <g>
        <polygon points="329.565 141.229 278.606 109.887 276.931 169.69 329.565 141.229" fill="#61878b" stroke-width="0"/>
        <path d="M276.406,170.541l1.724-61.534,52.435,32.251-54.158,29.283ZM279.081,110.767l-1.626,58.071,51.109-27.637-49.483-30.435Z" fill="#61878b" stroke-width="0"/>
      </g>
    </g>
    <g>
      <g>
        <path d="M251.331,95.979s-33.462-20.864-83.84-14.894" fill="#61878b" stroke-width="0"/>
        <path d="M251.321,105.98c-1.797,0-3.615-.483-5.254-1.498-.443-.271-31.548-18.905-77.4-13.467-5.489.646-10.458-3.27-11.107-8.754s3.27-10.457,8.754-11.107c53.251-6.306,88.82,15.411,90.309,16.34,4.687,2.922,6.117,9.09,3.194,13.776-1.896,3.04-5.158,4.71-8.495,4.71Z" fill="#61878b" stroke-width="0"/>
      </g>
      <g>
        <polygon points="169.414 50.828 125.765 91.742 183.019 109.097 169.414 50.828" fill="#61878b" stroke-width="0"/>
        <path d="M183.702,109.826l-58.911-17.856,44.913-42.099,13.998,59.955ZM126.738,91.515l55.597,16.853-13.211-56.582-42.386,39.729Z" fill="#61878b" stroke-width="0"/>
      </g>
    </g>
    <path d="M221.032,374.317c-4.734,0-8.94-3.376-9.824-8.198-.996-5.433,2.601-10.644,8.032-11.64,79.969-14.661,138.01-84.413,138.01-165.854,0-92.98-75.645-168.625-168.625-168.625S20,95.645,20,188.625c0,31.941,8.968,63.028,25.935,89.898,16.52,26.162,39.856,47.281,67.488,61.073,4.941,2.467,6.948,8.472,4.481,13.413-2.466,4.942-8.472,6.949-13.413,4.481-30.901-15.424-56.997-39.038-75.468-68.29C10.036,259.131,0,224.352,0,188.625,0,84.617,84.617,0,188.625,0s188.625,84.617,188.625,188.625c0,91.099-64.936,169.124-154.402,185.526-.609.112-1.217.166-1.815.166Z" fill="#61878b" stroke-width="0"/>
  </g>
</svg>